<svg width="40" height="14" viewBox="0 0 40 14" fill="none" xmlns="http://www.w3.org/2000/svg">
<path d="M17.3404 13.2704H14.0765L16.1164 0.733777H19.3807L17.3404 13.2704ZM11.3307 0.733777L8.219 9.35654L7.85079 7.49973L7.85112 7.5004L6.75287 1.86255C6.75287 1.86255 6.62007 0.733777 5.20457 0.733777H0.0603624L0 0.946051C0 0.946051 1.57311 1.27335 3.41416 2.37899L6.24985 13.2707H9.65059L14.8434 0.733777H11.3307ZM37.0031 13.2704H40.0001L37.3871 0.733442H34.7633C33.5517 0.733442 33.2566 1.66772 33.2566 1.66772L28.3887 13.2704H31.7912L32.4716 11.4082H36.6208L37.0031 13.2704ZM33.4115 8.83575L35.1265 4.14425L36.0913 8.83575H33.4115ZM28.6439 3.74854L29.1097 1.05638C29.1097 1.05638 27.6724 0.509766 26.1741 0.509766C24.5544 0.509766 20.708 1.21768 20.708 4.66001C20.708 7.89879 25.2224 7.93903 25.2224 9.64025C25.2224 11.3415 21.1731 11.0366 19.8367 9.96386L19.3515 12.7788C19.3515 12.7788 20.8089 13.4867 23.0356 13.4867C25.263 13.4867 28.6231 12.3334 28.6231 9.19457C28.6231 5.935 24.0681 5.63151 24.0681 4.21434C24.0685 2.79683 27.2472 2.97892 28.6439 3.74854Z" fill="white"/>
<path d="M7.85117 7.50295L6.7529 1.8651C6.7529 1.8651 6.6201 0.736328 5.2046 0.736328H0.0603627L0 0.948602C0 0.948602 2.47252 1.46101 4.8441 3.38087C7.11172 5.21589 7.85117 7.50295 7.85117 7.50295Z" fill="white"/>
</svg>
